# xmcd CD database file
#
# Track frame offsets:
#	183
#	22693
#	39258
#	67905
#	89428
#	104500
#	120400
#	148380
#	169890
#	200110
#	223340
#	244680
#	257393
#	274788
#	304433
#
# Disc length: 4257 seconds
#
# Revision: 0
# Processed by: cddbd v1.5.2PL0 Copyright (c) Steve Scherf et al.
# Submitted via: CDex 1.70beta2
#
DISCID=db109f0f
DTITLE=Steve Houben - City Of Glass
DYEAR=1989
DGENRE=Jazz
TTITLE0=City Of Glass
TTITLE1=Sanctus  Aria
TTITLE2=Song For Augusto
TTITLE3=Twice A Day
TTITLE4=Lestero
TTITLE5=Enfant de l'aube
TTITLE6=Belgian Tango
TTITLE7=Montesol
TTITLE8=Rendez-vous a minuit
TTITLE9=For A Whale's Funeral
TTITLE10=Jardin de la paresse
TTITLE11=Elevators
TTITLE12=Distant Voices
TTITLE13=Shadow Of The Past
TTITLE14=Sur le deuxieme pouce
EXTD=YEAR: 1989
EXTT0=
EXTT1=
EXTT2=
EXTT3=
EXTT4=
EXTT5=
EXTT6=
EXTT7=
EXTT8=
EXTT9=
EXTT10=
EXTT11=
EXTT12=
EXTT13=
EXTT14=
PLAYORDER=
